<?xml version="1.0" encoding="utf-8" ?>
<svg xmlns="http://www.w3.org/2000/svg" xmlns:xlink="http://www.w3.org/1999/xlink" width="512" height="512">
	<defs>
		<linearGradient id="gradient_0" gradientUnits="userSpaceOnUse" x1="255.66675" y1="511.92761" x2="256.08365" y2="-0.17720227">
			<stop offset="0" stop-color="#FFE69A"/>
			<stop offset="1" stop-color="#FFFDD9"/>
		</linearGradient>
	</defs>
	<path fill="url(#gradient_0)" d="M0 0L37.3194 0L474.704 0L512 0L512 37.3151L512 474.946L512 512L475.47 512L36.3222 512L0 512L0 474.69L0 37.5678L0 0ZM0 474.69L0 512L36.3222 512C33.6472 510.496 29.5391 510.274 26.5858 509.028C15.9577 504.544 6.70084 495.621 2.7207 484.693C2.03055 482.798 1.47589 480.809 1.03169 478.842C0.758736 477.634 0.673033 476.215 0.178483 475.081C0.121201 474.949 0.0594942 474.82 0 474.69ZM474.704 0C474.833 0.060487 474.96 0.12315 475.09 0.181461C477.684 1.34737 481.653 1.53818 484.552 2.56865C495.683 6.52519 504.705 15.9951 509.142 26.785C510.327 29.6668 511.034 35.4241 512 37.3151L512 0L474.704 0ZM0 0L0 37.5678C0.670622 36.2032 0.799888 34.1412 1.13324 32.6402C1.72464 29.9775 2.5096 27.422 3.66107 24.9466C8.58396 14.3634 17.2373 6.22971 28.3004 2.35422C31.0776 1.38138 34.1601 1.20944 36.8762 0.17449C37.0246 0.117955 37.1717 0.0581634 37.3194 0L0 0ZM512 474.946C511.941 475.076 511.881 475.205 511.824 475.336C510.894 477.493 510.333 482.028 509.3 484.865C505.413 495.542 496.182 504.473 485.805 508.852C483.707 509.737 481.514 510.379 479.315 510.956C478.148 511.263 476.513 511.429 475.47 512L512 512L512 474.946Z"/>
	<path fill="#FEC500" d="M94.6461 352.101C102.335 351.642 110.241 354.32 116.19 359.168Q116.803 359.666 117.391 360.194Q117.979 360.722 118.54 361.278Q119.101 361.835 119.633 362.419Q120.166 363.002 120.669 363.612Q121.172 364.221 121.644 364.855Q122.116 365.488 122.556 366.144Q122.996 366.801 123.403 367.478Q123.809 368.155 124.182 368.852Q124.555 369.549 124.892 370.263Q125.23 370.977 125.532 371.708Q125.833 372.438 126.099 373.182Q126.364 373.926 126.591 374.683Q126.819 375.44 127.009 376.207Q127.199 376.973 127.351 377.749Q127.502 378.524 127.615 379.306Q127.728 380.088 127.802 380.875Q127.88 381.657 127.919 382.443Q127.959 383.228 127.96 384.014Q127.96 384.8 127.922 385.586Q127.884 386.371 127.808 387.153Q127.731 387.936 127.616 388.714Q127.501 389.491 127.348 390.263Q127.195 391.034 127.004 391.797Q126.813 392.559 126.585 393.312Q126.357 394.064 126.092 394.804Q125.827 395.544 125.526 396.271Q125.224 396.997 124.888 397.708Q124.552 398.418 124.181 399.112Q123.81 399.805 123.405 400.479Q123 401.153 122.563 401.806Q122.125 402.46 121.656 403.091Q121.187 403.722 120.688 404.329C114.734 411.543 106.745 415.096 97.562 415.94Q96.8028 415.974 96.0429 415.973Q95.2829 415.972 94.5239 415.934Q93.7649 415.897 93.0084 415.824Q92.252 415.751 91.4998 415.642Q90.7477 415.534 90.0015 415.39Q89.2553 415.246 88.5167 415.067Q87.7782 414.888 87.0489 414.674Q86.3196 414.46 85.6012 414.212Q84.8828 413.965 84.1768 413.683Q83.4709 413.402 82.7791 413.087Q82.0872 412.773 81.4109 412.426Q80.7347 412.079 80.0755 411.701Q79.4164 411.323 78.7758 410.914Q78.1352 410.505 77.5146 410.067Q76.894 409.628 76.2948 409.161Q75.6956 408.693 75.1191 408.198Q74.5208 407.683 73.9487 407.14Q73.3766 406.596 72.8322 406.024Q72.2879 405.453 71.7725 404.855Q71.2571 404.257 70.7721 403.635Q70.287 403.012 69.8334 402.366Q69.3799 401.72 68.9589 401.053Q68.5379 400.385 68.1506 399.697Q67.7633 399.01 67.4106 398.304Q67.0579 397.598 66.7406 396.875Q66.4234 396.152 66.1423 395.415Q65.8613 394.677 65.6173 393.927Q65.3732 393.176 65.1667 392.414Q64.9602 391.653 64.7917 390.881Q64.6232 390.11 64.4932 389.332Q64.3632 388.553 64.272 387.769Q64.1808 386.986 64.1286 386.198Q64.0728 385.416 64.0555 384.631Q64.0382 383.847 64.0595 383.063Q64.0808 382.279 64.1406 381.496Q64.2004 380.714 64.2986 379.936Q64.3969 379.158 64.5332 378.385Q64.6696 377.613 64.8438 376.848Q65.018 376.083 65.2296 375.327Q65.4411 374.572 65.6896 373.828Q65.9381 373.084 66.2229 372.353Q66.5076 371.622 66.828 370.906Q67.1484 370.19 67.5036 369.49Q67.8588 368.791 68.2479 368.11Q68.6371 367.429 69.0593 366.767Q69.4815 366.106 69.9356 365.467Q70.3898 364.827 70.8749 364.21Q71.36 363.594 71.8748 363.002C77.8747 356.146 85.6611 352.733 94.6461 352.101Z"/>
	<defs>
		<linearGradient id="gradient_1" gradientUnits="userSpaceOnUse" x1="116.73859" y1="64.991364" x2="117.84097" y2="180.55835">
			<stop offset="0" stop-color="#FF6800"/>
			<stop offset="1" stop-color="#FF8900"/>
		</linearGradient>
	</defs>
	<path fill="url(#gradient_1)" d="M169.506 64.0967C169.69 64.0833 169.873 64.0674 170.056 64.0624Q170.588 64.044 171.121 64.0524Q171.653 64.0608 172.185 64.096Q172.716 64.1312 173.245 64.1931Q173.774 64.255 174.299 64.3435Q174.824 64.432 175.344 64.5468Q175.864 64.6616 176.378 64.8024Q176.891 64.9433 177.397 65.1098Q177.903 65.2763 178.4 65.4681Q178.897 65.6599 179.383 65.8764Q179.87 66.093 180.345 66.3338Q180.82 66.5746 181.282 66.8389Q181.744 67.1033 182.193 67.3907Q182.641 67.678 183.074 67.9875Q183.508 68.2971 183.925 68.6281Q184.342 68.959 184.742 69.3106Q185.142 69.6621 185.524 70.0334Q185.902 70.3983 186.261 70.7815Q186.62 71.1647 186.959 71.5654Q187.299 71.9661 187.618 72.3831Q187.937 72.8002 188.235 73.2327Q188.533 73.6652 188.809 74.112Q189.085 74.5587 189.339 75.0187Q189.592 75.4787 189.823 75.9508Q190.053 76.4228 190.259 76.9057Q190.466 77.3887 190.648 77.8813Q190.83 78.3739 190.987 78.875Q191.144 79.3761 191.277 79.8844Q191.409 80.3926 191.515 80.9069Q191.622 81.4211 191.703 81.9401Q191.784 82.459 191.839 82.9813Q191.894 83.5036 191.922 84.028Q191.951 84.5524 191.954 85.0776C192.063 93.5572 187.658 98.5007 182.05 104.194L132.607 154.169L118.78 168.183C115.629 171.375 112.492 174.979 108.82 177.573C105.421 179.975 100.961 181.342 96.8046 181.341C87.0676 181.34 81.4094 174.813 75.1205 168.407L65.0853 158.239C59.408 152.556 53.2212 146.934 47.9879 140.861C44.2409 136.513 42.2653 130.891 42.7553 125.138Q42.8001 124.6 42.8717 124.065Q42.9434 123.531 43.0418 123Q43.1402 122.47 43.2651 121.945Q43.39 121.42 43.5411 120.902Q43.6921 120.384 43.869 119.874Q44.0458 119.364 44.248 118.864Q44.4502 118.364 44.6772 117.874Q44.9043 117.385 45.1555 116.908Q45.4068 116.43 45.6818 115.966Q45.9567 115.501 46.2545 115.052Q46.5524 114.602 46.8724 114.167Q47.1925 113.733 47.5339 113.315Q47.8753 112.897 48.2373 112.497Q48.5992 112.097 48.9808 111.716Q49.3624 111.334 49.7626 110.972Q50.1628 110.61 50.5807 110.269Q50.9857 109.938 51.4065 109.627Q51.8274 109.316 52.263 109.026Q52.6986 108.736 53.1479 108.467Q53.5973 108.199 54.0593 107.954Q54.5213 107.708 54.9949 107.485Q55.4684 107.262 55.9523 107.063Q56.4363 106.864 56.9294 106.689Q57.4225 106.514 57.9237 106.363Q58.4248 106.213 58.9328 106.087Q59.4407 105.961 59.9543 105.861Q60.4678 105.76 60.9857 105.685Q61.5035 105.609 62.0245 105.56Q62.5454 105.51 63.0681 105.486Q63.5909 105.462 64.1142 105.464Q64.6375 105.466 65.16 105.493Q65.6826 105.521 66.2032 105.574Q67.3723 105.699 68.52 105.954Q69.6676 106.209 70.7794 106.592Q71.8912 106.974 72.9529 107.479Q74.0147 107.984 75.013 108.605C79.978 111.706 84.1832 116.836 88.2943 120.991C91.1136 123.84 94.1947 126.64 96.7242 129.747L138.51 87.541L149.587 76.3021C152.626 73.2146 155.637 69.7971 159.233 67.3473C162.327 65.2397 165.833 64.427 169.506 64.0967Z"/>
	<defs>
		<linearGradient id="gradient_2" gradientUnits="userSpaceOnUse" x1="117.02663" y1="192.62366" x2="117.30685" y2="308.70218">
			<stop offset="0" stop-color="#FF8D00"/>
			<stop offset="1" stop-color="#FFAF00"/>
		</linearGradient>
	</defs>
	<path fill="url(#gradient_2)" d="M169.432 192.097Q169.958 192.059 170.485 192.052Q171.008 192.045 171.531 192.064Q172.054 192.082 172.575 192.127Q173.096 192.171 173.615 192.241Q174.133 192.311 174.648 192.407Q175.162 192.502 175.671 192.623Q176.18 192.744 176.683 192.89Q177.185 193.036 177.68 193.206Q178.174 193.376 178.66 193.571Q179.146 193.766 179.621 193.984Q180.096 194.202 180.561 194.444Q181.025 194.685 181.476 194.949Q181.928 195.213 182.366 195.499Q182.804 195.785 183.227 196.093Q183.651 196.4 184.059 196.728Q184.466 197.056 184.857 197.403Q185.249 197.751 185.622 198.117Q185.998 198.485 186.355 198.872Q186.712 199.258 187.049 199.662Q187.387 200.066 187.704 200.486Q188.021 200.907 188.316 201.342Q188.612 201.777 188.885 202.227Q189.159 202.676 189.41 203.139Q189.661 203.602 189.888 204.076Q190.116 204.551 190.319 205.036Q190.523 205.521 190.702 206.016Q190.882 206.511 191.036 207.014Q191.19 207.517 191.32 208.027Q191.449 208.537 191.553 209.053Q191.656 209.569 191.734 210.09Q191.812 210.61 191.864 211.134Q191.916 211.657 191.942 212.183Q191.967 212.709 191.967 213.235Q191.973 214.052 191.916 214.866Q191.859 215.681 191.74 216.489Q191.62 217.297 191.438 218.093Q191.257 218.889 191.014 219.669Q190.771 220.448 190.469 221.207Q190.167 221.966 189.807 222.699Q189.447 223.432 189.032 224.135Q188.616 224.838 188.148 225.507C185.857 228.822 182.518 231.722 179.689 234.585L165.485 248.944L115.094 299.917C109.805 305.246 104.685 309.362 96.7923 309.335C87.211 309.303 81.6924 303.098 75.4723 296.778L65.1854 286.337C59.6716 280.802 52.6702 274.444 47.7683 268.598Q47.4237 268.195 47.0997 267.774Q46.7757 267.354 46.4731 266.918Q46.1705 266.482 45.8902 266.032Q45.6098 265.581 45.3524 265.117Q45.0949 264.653 44.861 264.177Q44.6271 263.701 44.4173 263.213Q44.2076 262.726 44.0225 262.229Q43.8374 261.731 43.6774 261.225Q43.5174 260.719 43.383 260.206Q43.2485 259.693 43.1399 259.173Q43.0314 258.654 42.9489 258.13Q42.8665 257.606 42.8104 257.078Q42.7543 256.55 42.7247 256.02Q42.695 255.491 42.692 254.96Q42.6889 254.429 42.7125 253.899Q42.736 253.369 42.786 252.841Q42.8369 252.309 42.9143 251.78Q42.9916 251.252 43.0951 250.728Q43.1986 250.203 43.3281 249.685Q43.4576 249.167 43.6127 248.656Q43.7678 248.144 43.9481 247.641Q44.1284 247.138 44.3336 246.645Q44.5387 246.152 44.7681 245.669Q44.9975 245.187 45.2507 244.716Q45.5038 244.246 45.78 243.788Q46.0562 243.331 46.3549 242.888Q46.6535 242.445 46.9738 242.017Q47.2941 241.59 47.6353 241.178Q47.9764 240.767 48.3376 240.373Q48.6988 239.98 49.0792 239.605Q49.4595 239.229 49.858 238.873Q50.2566 238.518 50.6723 238.182Q51.0771 237.855 51.4974 237.549Q51.9177 237.242 52.3525 236.956Q52.7874 236.671 53.2356 236.406Q53.6839 236.142 54.1446 235.901Q54.6053 235.659 55.0772 235.44Q55.5492 235.221 56.0313 235.025Q56.5134 234.829 57.0045 234.658Q57.4956 234.486 57.9945 234.338Q58.4934 234.191 58.9989 234.068Q59.5045 233.945 60.0154 233.847Q60.5264 233.749 61.0415 233.676Q61.5566 233.603 62.0747 233.555Q62.5928 233.508 63.1126 233.485Q63.6324 233.463 64.1527 233.466Q64.673 233.47 65.1925 233.498Q65.7119 233.527 66.2294 233.581C75.8227 234.649 81.6879 242.276 88.0308 248.704C90.9279 251.641 94.1533 254.534 96.7184 257.755L137.876 216.185L149.423 204.458C152.491 201.34 155.513 197.922 159.119 195.417C162.207 193.273 165.746 192.444 169.432 192.097Z"/>
	<path fill="#FE7900" d="M232.148 106.816C235.844 106.384 239.772 106.622 243.496 106.629L262.649 106.655L327.056 106.651L409.217 106.647L434.61 106.64C439.381 106.633 444.296 106.367 449.049 106.75C453.165 107.081 456.816 108.158 460.228 110.536Q460.663 110.841 461.083 111.167Q461.502 111.493 461.905 111.84Q462.308 112.187 462.693 112.553Q463.078 112.919 463.444 113.304Q463.81 113.689 464.157 114.092Q464.504 114.494 464.83 114.914Q465.156 115.333 465.462 115.768Q465.767 116.203 466.05 116.653Q466.333 117.103 466.593 117.566Q466.854 118.029 467.091 118.505Q467.328 118.98 467.541 119.467Q467.754 119.954 467.943 120.45Q468.131 120.947 468.295 121.453Q468.459 121.958 468.597 122.471Q468.736 122.984 468.848 123.503Q468.961 124.023 469.048 124.547Q469.133 125.065 469.192 125.587Q469.251 126.109 469.284 126.633Q469.317 127.157 469.325 127.683Q469.332 128.208 469.314 128.733Q469.295 129.257 469.251 129.781Q469.206 130.304 469.136 130.825Q469.066 131.345 468.971 131.862Q468.875 132.378 468.754 132.889Q468.634 133.4 468.488 133.905Q468.342 134.409 468.171 134.906Q468.001 135.403 467.806 135.891Q467.611 136.378 467.392 136.856Q467.174 137.333 466.932 137.8Q466.69 138.266 466.425 138.719Q466.161 139.173 465.874 139.613Q465.588 140.053 465.28 140.479C461.65 145.479 456.507 148.181 450.497 149.175C447.408 149.596 444.037 149.348 440.911 149.344L423.881 149.32L364.887 149.317L276.439 149.32L248.094 149.324C243.352 149.326 238.453 149.622 233.728 149.294C229.726 149.017 225.926 147.813 222.604 145.54Q222.168 145.243 221.747 144.925Q221.326 144.607 220.922 144.268Q220.518 143.929 220.131 143.571Q219.744 143.212 219.375 142.835Q219.006 142.457 218.657 142.062Q218.308 141.667 217.978 141.255Q217.649 140.842 217.341 140.414Q217.033 139.986 216.746 139.543Q216.459 139.1 216.195 138.644Q215.931 138.187 215.69 137.718Q215.449 137.249 215.232 136.768Q215.014 136.287 214.821 135.796Q214.628 135.305 214.46 134.805Q214.291 134.305 214.148 133.798Q214.005 133.29 213.887 132.776Q213.769 132.261 213.677 131.742Q213.585 131.223 213.52 130.701Q213.454 130.178 213.414 129.653Q213.373 129.128 213.359 128.602Q213.345 128.075 213.357 127.549Q213.368 127.022 213.406 126.497Q213.443 125.972 213.507 125.449Q213.57 124.926 213.659 124.407Q213.748 123.888 213.863 123.374Q213.977 122.86 214.117 122.352Q214.256 121.844 214.421 121.344Q214.585 120.844 214.774 120.352Q214.963 119.86 215.175 119.378Q215.388 118.897 215.624 118.426Q215.86 117.955 216.119 117.497Q216.379 117.038 216.66 116.593Q216.941 116.148 217.244 115.717C220.894 110.585 226.029 107.846 232.148 106.816Z"/>
	<path fill="#FE9F00" d="M443.173 234.625C450.751 234.549 457.357 235.263 463.008 240.838Q463.377 241.205 463.729 241.589Q464.08 241.973 464.412 242.374Q464.744 242.775 465.056 243.192Q465.368 243.608 465.659 244.04Q465.951 244.471 466.221 244.916Q466.491 245.361 466.739 245.818Q466.987 246.276 467.212 246.745Q467.438 247.214 467.64 247.694Q467.843 248.174 468.021 248.662Q468.2 249.151 468.355 249.648Q468.509 250.145 468.64 250.649Q468.77 251.153 468.876 251.663Q468.981 252.173 469.062 252.687Q469.143 253.201 469.198 253.719Q469.254 254.236 469.284 254.756Q469.314 255.275 469.319 255.796Q469.323 256.321 469.301 256.846Q469.279 257.371 469.231 257.894Q469.183 258.417 469.11 258.937Q469.037 259.457 468.939 259.973Q468.84 260.488 468.717 260.999Q468.593 261.509 468.445 262.013Q468.296 262.517 468.124 263.013Q467.951 263.509 467.754 263.996Q467.557 264.482 467.337 264.959Q467.116 265.436 466.873 265.901Q466.63 266.366 466.364 266.819Q466.098 267.272 465.81 267.712Q465.522 268.151 465.214 268.576Q464.905 269 464.576 269.41Q464.246 269.819 463.897 270.211Q463.549 270.604 463.181 270.979Q462.57 271.599 461.91 272.167Q461.25 272.734 460.545 273.245Q459.841 273.756 459.096 274.207Q458.351 274.658 457.572 275.045Q456.792 275.433 455.983 275.755Q455.174 276.076 454.342 276.33Q453.509 276.583 452.658 276.767Q451.807 276.95 450.944 277.063C444.933 277.877 435.926 277.337 429.556 277.334L387.504 277.317L238.938 277.337C231.533 277.363 225.305 276.625 219.744 271.209Q219.368 270.842 219.01 270.457Q218.652 270.072 218.314 269.669Q217.976 269.267 217.659 268.848Q217.341 268.429 217.045 267.995Q216.749 267.561 216.474 267.112Q216.2 266.664 215.948 266.203Q215.696 265.741 215.467 265.268Q215.239 264.795 215.034 264.31Q214.829 263.826 214.649 263.333Q214.469 262.839 214.313 262.337Q214.157 261.835 214.027 261.326Q213.896 260.817 213.791 260.302Q213.686 259.786 213.607 259.267Q213.528 258.747 213.474 258.224Q213.421 257.701 213.394 257.177Q213.366 256.652 213.365 256.126Q213.361 255.595 213.383 255.065Q213.405 254.535 213.454 254.007Q213.503 253.479 213.578 252.954Q213.653 252.428 213.754 251.908Q213.855 251.387 213.982 250.872Q214.109 250.357 214.262 249.849Q214.415 249.341 214.593 248.841Q214.771 248.341 214.973 247.851Q215.176 247.36 215.403 246.881Q215.63 246.401 215.881 245.934Q216.132 245.466 216.405 245.012Q216.679 244.557 216.975 244.117Q217.271 243.677 217.589 243.252Q217.907 242.827 218.245 242.419Q218.584 242.01 218.943 241.62Q219.301 241.229 219.679 240.856Q220.29 240.243 220.95 239.683Q221.61 239.123 222.314 238.619Q223.019 238.116 223.762 237.674Q224.506 237.231 225.284 236.852Q226.062 236.472 226.869 236.159Q227.676 235.846 228.507 235.602Q229.337 235.357 230.185 235.182Q231.033 235.007 231.892 234.904C238.181 234.093 247.152 234.627 253.793 234.633L296.247 234.65L443.173 234.625Z"/>
	<path fill="#FEC500" d="M237.396 362.622L386.611 362.635L428.85 362.623C435.912 362.615 444.54 362.021 451.433 362.997C455.683 363.599 459.82 365.754 462.893 368.734Q463.27 369.102 463.629 369.489Q463.988 369.875 464.327 370.279Q464.666 370.682 464.985 371.102Q465.303 371.522 465.601 371.957Q465.898 372.393 466.174 372.842Q466.45 373.291 466.703 373.754Q466.956 374.216 467.186 374.69Q467.417 375.165 467.623 375.65Q467.829 376.135 468.011 376.63Q468.193 377.124 468.351 377.628Q468.508 378.131 468.641 378.641Q468.773 379.151 468.88 379.668Q468.987 380.184 469.069 380.705Q469.15 381.226 469.206 381.75Q469.261 382.274 469.291 382.8Q469.32 383.327 469.324 383.854Q469.327 384.383 469.304 384.912Q469.281 385.441 469.232 385.967Q469.183 386.494 469.108 387.018Q469.032 387.542 468.931 388.061Q468.83 388.581 468.704 389.095Q468.577 389.608 468.425 390.115Q468.273 390.622 468.096 391.121Q467.919 391.62 467.718 392.109Q467.517 392.598 467.291 393.077Q467.066 393.556 466.817 394.023Q466.569 394.49 466.297 394.944Q466.025 395.398 465.732 395.838Q465.438 396.279 465.123 396.704Q464.808 397.129 464.472 397.538Q464.136 397.947 463.78 398.339Q463.425 398.73 463.05 399.104C458.122 404.035 452.311 405.319 445.555 405.344L296.634 405.327L254.021 405.343C247.703 405.352 238.229 405.886 232.182 405.13Q231.322 405.027 230.472 404.856Q229.623 404.685 228.79 404.446Q227.957 404.207 227.146 403.902Q226.335 403.598 225.55 403.229Q224.766 402.86 224.014 402.43Q223.262 402 222.547 401.511Q221.832 401.022 221.158 400.477Q220.484 399.932 219.856 399.335Q219.478 398.97 219.119 398.587Q218.76 398.203 218.42 397.803Q218.08 397.402 217.76 396.986Q217.44 396.569 217.141 396.137Q216.842 395.705 216.564 395.259Q216.287 394.813 216.032 394.354Q215.777 393.894 215.545 393.423Q215.313 392.952 215.104 392.47Q214.895 391.987 214.711 391.496Q214.526 391.004 214.366 390.504Q214.206 390.003 214.07 389.496Q213.935 388.988 213.825 388.474Q213.714 387.961 213.63 387.442Q213.545 386.924 213.486 386.402Q213.426 385.88 213.393 385.356Q213.36 384.831 213.352 384.306Q213.344 383.782 213.361 383.259Q213.379 382.735 213.422 382.213Q213.465 381.691 213.534 381.172Q213.603 380.652 213.698 380.137Q213.793 379.622 213.913 379.112Q214.032 378.602 214.177 378.099Q214.322 377.595 214.492 377.099Q214.662 376.604 214.856 376.117Q215.05 375.631 215.267 375.154Q215.485 374.678 215.726 374.212Q215.967 373.747 216.231 373.295Q216.495 372.842 216.78 372.403Q217.066 371.964 217.373 371.539Q217.68 371.115 218.008 370.706Q218.336 370.298 218.683 369.906Q219.031 369.513 219.397 369.139C224.468 363.919 230.392 362.718 237.396 362.622Z"/>
</svg>
